<?xml version="1.0" encoding="UTF-8"?><svg id="Layer_2" xmlns="http://www.w3.org/2000/svg" viewBox="0 0 106.24 76.12"><defs><style>.cls-1{fill:#ee7623;}.cls-2{fill:#fff;}.cls-3{fill:#0047ba;}</style></defs><g id="Layer_1-2"><g><g><path class="cls-3" d="M26.91,65.52c.77-1.14,1.63-2.07,2.48-2.65,.45-.29,.92-.48,1.33-.5,.34-.02,.77,.1,.73,.56-.06,.68-1.24,1.57-2.68,2.16l-.58,.23c-.41,.73-.75,1.43-1.09,2.05-1.65,3.11-4.13,4.33-6.91,4.52-1.13,.06-2.55-.06-3.49-.7-.79,.68-1.46,1.37-1.71,1.93-.06,.12-.11,.21-.17,.19s-.02-.19,0-.25c.21-.6,.81-1.35,1.61-2.07-.45-.39-.86-1.08-.79-1.95,.17-2.03,2.74-3.09,4.47-3.21,1.13-.08,2.85,.15,3.47,1.06,1.18-.48,2.21-.91,3.34-1.35Zm-6.81,.48c-1.5,.12-3.57,1.02-3.73,2.94-.04,.7,.17,1.31,.47,1.66,.17-.17,.43-.37,.66-.54,.41-.29,.75-.52,1.24-.83-.24-.21-.41-.48-.45-.79-.02-.1,0-.21,.06-.21,.04,0,.04,.08,.06,.17,.09,.29,.28,.52,.51,.7,.92-.54,1.93-1.04,2.87-1.45l1.41-.62c-.49-.93-2.08-1.12-3.12-1.04Zm-1.03,3.46c-.45,.29-.86,.56-1.28,.87l-.71,.54c.79,.75,2.16,.91,3.3,.83,2.27-.19,3.92-1.62,5.46-4.35,.32-.54,.62-1.06,.94-1.51v-.02c-1.05,.41-2.01,.81-3.06,1.29,.09,.19,.13,.41,.13,.64-.04,1.39-1.67,2.16-3.06,2.16-.51,0-1.22-.12-1.71-.44Zm4.28-1.7c0-.19-.02-.35-.06-.5l-1.43,.64c-.71,.33-1.67,.83-2.61,1.43,.47,.25,1.09,.35,1.5,.35,1.28,0,2.55-.75,2.61-1.93Zm5.35-2.88c1.18-.48,2.42-1.26,2.5-1.95,.04-.29-.21-.42-.49-.37-.3,.04-.64,.25-.99,.58-.38,.35-.98,1.18-1.41,1.89l.38-.15Z"/><path class="cls-3" d="M27.02,71.49c-.43,0-.62-.21-.62-.52,0-.27,.13-.54,.32-.81,.43-.62,1.05-1.26,1.61-1.8,.41-.39,.56-.52,.98-.52,.45,0,.49,.06,.24,.33-.38,.41-.73,.81-1.16,1.33-.36,.44-.62,.81-.75,1.02-.13,.23-.15,.37-.06,.46,.11,.08,.3,.04,.51-.06,.21-.1,.58-.33,.94-.62,.45-.35,.64-.52,.99-.83,.19-.17,.28-.25,.34-.19,.06,.06-.17,.27-.24,.33-.26,.25-.79,.7-1.22,1.04s-1.16,.85-1.88,.85Zm3.57-6.05c.13-.31,.45-.39,.86-.39,.3,0,.43,.23,.17,.54-.26,.33-.79,.56-1.01,.56-.11-.13-.13-.44-.02-.7Z"/><path class="cls-3" d="M33.85,70.93c.02-.46,.49-.97,.9-1.45l.9-1.02c.09-.1,.13-.23,.02-.29-.11-.06-.34,.02-.56,.13-.39,.19-.98,.54-1.67,1.06-.94,.7-1.46,1.18-2.4,1.89-.19,.15-.32,.19-.56,.19-.3,0-.45-.04-.28-.33,.15-.27,.6-.95,.94-1.39l.86-1.08c.15-.19,.19-.29,.15-.35-.06-.08-.19-.04-.32,.02-.26,.12-.58,.35-.84,.56l-.92,.79c-.21,.19-.3,.25-.36,.19-.04-.06,.06-.17,.32-.39,.26-.23,.73-.66,1.11-.95,.58-.44,1.01-.68,1.46-.68,.41,0,.53,.23,.53,.46,0,.25-.17,.52-.45,.89-.32,.42-.77,.98-1.01,1.31l.02,.02c.51-.41,1.22-1.02,1.97-1.55,.75-.54,1.69-1.12,2.33-1.12,.45,0,.71,.21,.66,.56-.06,.37-.51,.85-.86,1.26-.34,.39-.6,.75-.71,.91-.17,.27-.17,.39-.09,.46,.11,.08,.34,0,.51-.08,.26-.12,.56-.29,1.03-.64,.36-.27,.79-.64,1.03-.85,.17-.15,.24-.17,.28-.13,.04,.04-.02,.13-.17,.27-.19,.19-.83,.75-1.28,1.08-.43,.31-1.26,.83-1.93,.83-.41,0-.66-.19-.64-.54Z"/><path class="cls-3" d="M37.3,70.66c.04-.41,.28-.85,.62-1.24l-.02-.02-.36,.31c-.13,.1-.24,.17-.28,.13-.04-.06,.04-.15,.13-.23,.28-.25,.47-.39,.79-.62,.24-.17,.66-.44,1.03-.62,.73-.37,1.41-.64,1.97-.56,.49,.08,.66,.39,.58,.79-.09,.39-.45,.7-.73,.7-.36,0-.36-.29-.17-.6,.24-.39,.32-.64,.06-.68-.24-.04-.73,.27-1.33,.87-.58,.56-1.13,1.35-1.2,1.85-.04,.31,.15,.48,.49,.48,.28,0,1.03-.12,1.97-.75,.41-.27,.94-.7,1.28-1,.13-.1,.19-.12,.24-.08,.04,.06-.04,.15-.17,.27-.28,.25-.88,.75-1.26,1-.75,.5-1.76,.89-2.5,.89-.79,0-1.18-.31-1.13-.87Z"/><path class="cls-3" d="M45.4,70.45c.41-.27,.9-.64,1.31-1,.13-.1,.19-.12,.24-.08,.04,.06-.04,.15-.17,.27-.28,.25-.96,.79-1.35,1.04-.9,.58-1.69,.85-2.42,.85-.79,0-1.16-.29-1.13-.83,.02-.41,.21-.79,.64-1.28l-.02-.02-.43,.37c-.11,.08-.17,.1-.21,.06-.04-.06,.04-.15,.13-.23,.28-.25,.47-.39,.79-.62,.24-.17,.64-.41,1.05-.62,.62-.31,1.26-.58,1.84-.58,.49,0,.66,.29,.64,.56-.04,.54-.73,.95-1.37,1.26-.62,.29-1.35,.54-1.84,.66-.09,.17-.13,.35-.13,.48,0,.31,.17,.48,.49,.48,.28,0,1.01-.15,1.95-.77Zm-.73-1.04c.53-.35,.86-.79,.88-1.08,.02-.19-.06-.29-.26-.29s-.51,.21-.94,.6c-.34,.31-.88,.97-1.13,1.39,.43-.1,1.01-.33,1.46-.62Z"/><path class="cls-1" d="M51.22,65.01c0-.23-.06-.33-.34-.31-.6,.04-1.16,.12-1.86,.12-.17-.12-.36-.46-.36-.56,0-.08,0-.1,.17-.15,1.73-.39,3.92-1.28,4.75-1.6,.06-.02,.11-.02,.17-.02,.11,0,.21,.04,.21,.17v8.17c0,3.15,.04,3.48,.13,3.69,.06,.21,.21,.29,2.74,.5-.02,.6-.13,.75-.3,.75h-3.08c-1.54,0-2.72,.12-4.94,.12-.19,0-.26-.02-.24-.12,.11-.39,.15-.56,.26-.58,.43-.1,1.43-.17,2.18-.29,.3-.04,.34-.19,.38-.39,.09-.44,.21-2.22,.19-4.17l-.06-5.33Z"/><path class="cls-1" d="M67.7,65.82c0,.62-.47,1.12-.83,1.43-.45,.48-.96,.87-1.48,1.31,1.88,1.02,2.85,1.89,2.85,3.61,0,1.43-.96,2.51-1.67,2.94-.84,.54-2.1,1.02-3.15,1.02-1.16,0-2.46-.27-3.25-.91-.98-.77-1.35-1.72-1.35-2.59,0-.62,.28-1.1,.6-1.45,.28-.29,1.37-1.06,2.1-1.62-1.39-.89-2.14-1.8-2.14-3.13,0-.97,.3-1.78,.92-2.38,.49-.48,1.13-.87,1.78-1.16,.6-.27,1.18-.37,1.67-.37,2.46,0,3.98,1.37,3.96,3.32Zm-1.75,7.44c0-.68-.3-1.31-.79-1.78-.75-.73-1.69-1.16-2.12-1.31-.36-.08-.71-.15-.99,0-.45,.23-.9,.97-.9,1.93,0,2.01,1.65,3.05,2.76,3.05,1.24,0,2.03-.58,2.03-1.88Zm-3.81-9.39c-.38,.31-.58,.85-.58,1.41,0,1.39,1.03,2.01,2.08,2.47,.41,.17,.88,.35,1.03,.31,.51-.21,.92-.95,.92-1.82s-.11-1.53-.71-2.18c-.34-.37-.77-.66-1.48-.66-.53,0-.94,.19-1.26,.48Z"/><path class="cls-1" d="M78.88,65.82c0,.62-.47,1.12-.83,1.43-.45,.48-.96,.87-1.48,1.31,1.88,1.02,2.85,1.89,2.85,3.61,0,1.43-.96,2.51-1.67,2.94-.83,.54-2.1,1.02-3.15,1.02-1.16,0-2.46-.27-3.25-.91-.99-.77-1.35-1.72-1.35-2.59,0-.62,.28-1.1,.6-1.45,.28-.29,1.37-1.06,2.1-1.62-1.39-.89-2.14-1.8-2.14-3.13,0-.97,.3-1.78,.92-2.38,.49-.48,1.13-.87,1.78-1.16,.6-.27,1.18-.37,1.67-.37,2.46,0,3.98,1.37,3.96,3.32Zm-1.76,7.44c0-.68-.3-1.31-.79-1.78-.75-.73-1.69-1.16-2.12-1.31-.36-.08-.71-.15-.98,0-.45,.23-.9,.97-.9,1.93,0,2.01,1.65,3.05,2.76,3.05,1.24,0,2.03-.58,2.03-1.88Zm-3.81-9.39c-.39,.31-.58,.85-.58,1.41,0,1.39,1.03,2.01,2.08,2.47,.41,.17,.88,.35,1.03,.31,.51-.21,.92-.95,.92-1.82s-.11-1.53-.71-2.18c-.34-.37-.77-.66-1.48-.66-.54,0-.94,.19-1.26,.48Z"/><path class="cls-1" d="M88.71,63.54c.9,.85,1.2,1.99,1.2,2.94,0,1.2-.43,2.11-1.24,3.03-1.18,1.29-3.13,2.98-4.3,4.06-.09,.04-.02,.19,.13,.19,.66,0,4.2-.04,4.56-.06,.56-.02,.77-.15,1.31-1.33,.04-.1,.06-.1,.17-.04,.13,.04,.26,.17,.43,.29,.13,.06,.19,.19,.13,.31-.24,.39-1.2,2.55-1.31,2.76-.09,.15-.19,.21-.28,.21-.19,0-2.5-.02-4.62-.06-.71-.02-2.76-.02-3.32-.02-.19,0-.28-.12-.26-.19,.21-.68,.43-1.06,.66-1.26,.49-.39,2.4-1.72,3.88-3.54,1.2-1.45,1.5-2.67,1.5-3.77,0-1.55-.81-2.47-2.35-2.47-1.41,0-2.21,.68-2.83,1.97-.06,.06-.11,.06-.56-.1-.09-.02-.15-.1-.15-.19,.24-.97,.79-1.87,1.46-2.51,.62-.6,1.65-1.24,3.06-1.24,1.22,0,2.18,.5,2.74,1.04Z"/></g><g><g><path class="cls-2" d="M96.07,16.49v6.17h.92v-6.17c0-3.5-.49-4.86-4-4.86v-1.04h11.99v1.04c-3.38,0-4,1.17-4,4.86v6.17h.92v-6.17c0-3.42,.4-3.94,3.08-3.94h.92v-2.89h-13.83v2.89h.92c2.64,0,3.07,.55,3.07,3.94Z"/><path class="cls-2" d="M96.9,37.12h-1.06c-2.23,4.02-5.08,5.99-8.69,5.99s-6.1-2.22-7.04-5.99h-.95c1.05,4.6,4.19,6.91,7.99,6.91,4.67,0,7.66-2.93,9.75-6.91Z"/><path class="cls-2" d="M73.75,16.49v6.17s.92,0,.92,0v-6.17c0-3.69-.61-4.86-4-4.86v-1.05s12.11,0,12.11,0v1.05c-3.51,0-4,1.35-4,4.86v6.17h.92v-6.17c0-3.38,.43-3.93,3.07-3.93h.92v-2.89h-13.95v2.89h.92c2.67,0,3.07,.51,3.07,3.93Z"/><path class="cls-2" d="M101.91,39.61v-2.48h-.92v2.48c0,3.69,.61,4.86,4,4.86v1.04h-7.99v-5.65c-1.54,2.4-4.49,6.7-11.31,6.7-5.68,0-9.58-4.16-10.68-9.43h-.94c1.18,6.07,5.78,10.35,11.63,10.35,5.36,0,8.52-2.54,10.39-4.76v3.72h9.83v-2.89h-.92c-2.67,0-3.08-.51-3.08-3.93Z"/><path class="cls-2" d="M43.6,22.66c-2.04-2.4-3.5-5.26-3.5-8.72,0-7.94,6.4-12.68,12.59-12.68s8.49,2.12,10.97,2.12c1.44,0,1.85-1.57,1.85-1.57h.69V13.53h-.73s-1.76-10.51-11.4-10.51c-4.64,0-9.63,2.58-9.63,8.25,0,4.33,4.07,8.06,8.56,11.4h1.56c-4.7-3.4-9.2-7.17-9.2-11.4,0-5.03,4.52-7.33,8.71-7.33,9.35,0,10.62,10.51,10.62,10.51h2.43s0-13.56,0-13.56h-2.3s-.18,1.57-1.16,1.57c-2.2,0-4.7-2.12-10.97-2.12-6.64,0-13.51,5.09-13.51,13.6,0,3.45,1.32,6.31,3.22,8.72h1.2Z"/><path class="cls-2" d="M68.4,37.12c.48,1.33,.75,2.78,.75,4.39,0,9.21-7.16,13.33-14.25,13.33s-9.84-2.21-12.08-2.21c-1.83,0-2.38,1.66-2.38,1.66h-.9v-13.65h.82s2.33,12.54,13.34,12.54c6.45,0,10.46-3.48,10.46-9.08,0-2.51-1.31-4.84-3.19-6.97h-1.25c2.04,2.14,3.51,4.49,3.51,6.97,0,5.11-3.57,8.16-9.54,8.16-10.65,0-12.58-12.54-12.58-12.54h-2.5s0,15.49,0,15.49h2.47s.27-1.66,1.73-1.66c1.83,0,4.85,2.21,12.08,2.21s15.17-4.41,15.17-14.25c0-1.6-.25-3.06-.69-4.39h-.98Z"/><path class="cls-2" d="M6.05,16.74s.9,2.52,2.11,5.93h.98l-2.22-6.23c-1.48-4.18-3.2-4.79-5.66-4.79v-1.04H13.68v1.04c-1.78,0-4,.55-2.58,4.61l2.27,6.42h.98l-2.38-6.72c-.65-1.84-.95-3.38,1.71-3.38h.92v-2.89H.34v2.89h.92c2,0,3.42,.29,4.79,4.18Z"/><polygon class="cls-2" points="19.94 37.12 19.7 37.82 19.45 37.12 18.48 37.12 19.7 40.59 20.92 37.12 19.94 37.12"/><path class="cls-2" d="M27.38,15.94l-2.36,6.72h.98l2.25-6.42c1.41-4.06-.8-4.61-2.58-4.61v-1.04h10.33v1.04c-2.46,0-4.18,.61-5.66,4.79l-2.22,6.23h.98c1.21-3.41,2.11-5.92,2.11-5.92,1.37-3.89,2.79-4.18,4.79-4.18h.92v-2.89h-12.17v2.89h.92c2.55,0,2.43,1.35,1.71,3.39Z"/><path class="cls-2" d="M22.54,41.08s.57-1.59,1.41-3.95h-.98l-1.3,3.65c-.98,2.83,.68,3.75,2.21,3.75v.98H13.37v-.98c1.54,0,3.2-.92,2.21-3.75l-1.3-3.65h-.98c.84,2.37,1.41,3.96,1.41,3.96,.49,1.39,.36,2.52-1.35,2.52h-.92v2.83h12.35v-2.83h-.92c-1.66,0-1.88-1.08-1.34-2.53Z"/><path class="cls-2" d="M.32,22.98v13.83H105.93v-13.83H.32Zm104.69,12.91H1.24v-11.99H105v11.99Z"/><path class="cls-2" d="M5.8,27.13c.26,.73,.59,1.47,.87,2.19l1.87,4.67h.42l2.07-5.18c.02-.06,.79-2.01,.86-2.13,.16-.27,.37-.44,.76-.44v-.29c-.35,.01-.7,.02-1.05,.02-.44,0-.89-.01-1.33-.02v.29c.41,.02,.86-.01,.86,.52,0,.37-.24,.93-.35,1.29-.24,.73-.55,1.46-.82,2.19l-.86,2.23-1.5-3.86c-.12-.33-.72-1.69-.72-2.07,0-.17,.14-.26,.29-.27,.16-.02,.32-.02,.49-.03v-.29c-.47,0-.96,.02-1.43,.02-.53,0-1.06-.01-1.59-.02v.29c.75,0,.93,.21,1.18,.89Z"/><path class="cls-2" d="M16.78,33.48v-.24c-.5,0-.86-.02-.86-.68v-4.72c0-.66,.36-.67,.86-.68v-.24c-.47,0-.9,.02-1.34,.02s-.86,0-1.3-.02v.24c.5,0,.86,.02,.86,.68v4.72c0,.66-.36,.67-.86,.68v.24c.47,0,.91-.02,1.36-.02,.41,0,.82,.02,1.27,.02Z"/><path class="cls-2" d="M21.88,33.48v-.24c-.5,0-.86-.02-.86-.68v-2.18h.86c.68,1.06,1.31,2.16,2.16,3.1,.26,0,.54-.02,.8-.02,.23,0,.47,.02,.7,.02v-.24c-.48,0-.76-.25-1.06-.59-.4-.45-.86-1.2-1.71-2.46,.73-.22,1.34-.81,1.34-1.61,0-.67-.39-1.67-2.17-1.67-.6,0-.93,.02-1.26,.02-.46,0-.91,0-1.43-.02v.24c.5,0,.86,.02,.86,.68v4.77c0,.54-.39,.66-.86,.63v.24c.47,0,.91-.02,1.36-.02,.41,0,.82,.02,1.27,.02Zm-.86-6.21c.17-.03,.33-.06,.56-.06,1.11,0,1.54,.6,1.54,1.42,0,.68-.45,1.44-1.61,1.44-.16,0-.36-.02-.5-.05v-2.76Z"/><path class="cls-2" d="M30.79,33.63c.82,0,1.68-.26,2.45-.54v-.16l-.14-.14v-1.23c0-.69,.36-.69,.67-.69v-.24c-.28,0-.71,.02-1.15,.02s-.86,0-1.3-.02v.24c.5,0,.86,0,.86,.69v1.4c-.14,.1-.53,.37-1.27,.37-1.69,0-2.69-1.63-2.69-3.25,0-1.53,.96-2.99,2.62-2.99,1.05,0,1.97,.43,2.21,1.52h.21l-.16-1.32c-.78-.29-1.58-.51-2.42-.51-1.97,0-3.5,1.46-3.5,3.43,0,1.34,.97,3.41,3.61,3.41Z"/><path class="cls-2" d="M38.71,33.48v-.24c-.5,0-.86-.02-.86-.68v-4.72c0-.66,.36-.67,.86-.68v-.24c-.47,0-.9,.02-1.34,.02s-.86,0-1.3-.02v.24c.5,0,.86,.02,.86,.68v4.72c0,.66-.36,.67-.86,.68v.24c.47,0,.91-.02,1.36-.02,.41,0,.82,.02,1.27,.02Z"/><path class="cls-2" d="M42.14,28.26v3.78c0,1.19-.43,1.19-1.01,1.19v.24c.41,0,.84-.02,1.25-.02s.84,.02,1.25,.02v-.24c-1.02,0-1.12-.26-1.12-1.56v-3.51l4.92,5.4h.22v-5.44c0-.92,.31-.97,.88-.97v-.24c-.37,0-.72,.02-1.09,.02-.43,0-.88,0-1.31-.02v.24c.94,0,1.14,.27,1.14,1.14v3.74c-.64-.7-1.52-1.63-2.32-2.51-1.07-1.19-1.95-2.04-2.33-2.62-.25,0-.52,.02-.77,.02-.29,0-.57,0-.87-.02v.24c.81,0,1.16,.29,1.16,1.1Z"/><path class="cls-2" d="M53.43,33.48v-.24c-.5,0-.86-.02-.86-.68v-4.72c0-.66,.36-.67,.86-.68v-.24c-.47,0-.9,.02-1.34,.02s-.86,0-1.3-.02v.24c.5,0,.86,.02,.86,.68v4.72c0,.66-.36,.67-.86,.68v.24c.47,0,.91-.02,1.36-.02,.41,0,.82,.02,1.27,.02Z"/><path class="cls-2" d="M57.97,33.48v-.24h-.22c-.33-.02-.64,0-.64-.44,0-.29,.13-.72,.25-1.12l.21-.66h2.21l.47,1.36c.07,.18,.14,.44,.14,.54,0,.26-.28,.31-.52,.31h-.17v.24c.46,0,.91-.02,1.37-.02,.36,0,.72,.02,1.08,.02v-.24c-.3,0-.58-.07-.72-.25-.15-.21-.4-1.01-.54-1.37l-1.8-4.96h-.16c-.13,.22-.35,.32-.55,.41,.02,.08,.02,.15,.02,.25,0,.28-.12,.63-.2,.85l-1.2,3.36c-.12,.35-.24,.71-.39,1.05-.24,.53-.34,.6-.91,.67v.24c.38,0,.76-.02,1.14-.02s.74,.02,1.11,.02Zm.65-5.62h.02l1.01,2.77h-1.94l.91-2.77Z"/><path class="cls-2" d="M67.96,33.64c-.94,0-1.57-.82-1.76-1.67h-.26l.23,1.65c.53,.25,1.14,.38,1.73,.38,1.33,0,2.65-.82,2.65-2.29,0-2.6-3.48-2.02-3.48-4.12,0-.82,.5-1.44,1.35-1.44,.81,0,1.33,.46,1.46,1.25h.26l-.18-1.45c-.45-.07-.91-.17-1.38-.17-1.38,0-2.42,.76-2.42,2.21,0,2.66,3.34,2.04,3.34,4.14,0,.89-.68,1.5-1.55,1.5Z"/><path class="cls-2" d="M73.91,27.3h1.23v5.26c0,.66-.36,.67-.86,.68v.24c.47,0,.91-.02,1.36-.02,.41,0,.82,.02,1.27,.02v-.24c-.5,0-.86-.02-.86-.68v-5.26h1.43c.75,0,.72,.34,.75,.85h.25l.08-1.5h-.2c-.04,.18-.27,.26-.61,.26h-4.27c-.24,0-.49,0-.59-.26h-.19l-.1,1.5h.24c.16-.61,.2-.85,1.04-.85Z"/><path class="cls-2" d="M82.34,33.48v-.24h-.22c-.33-.02-.64,0-.64-.44,0-.29,.13-.72,.25-1.12l.21-.66h2.21l.47,1.36c.06,.18,.14,.44,.14,.54,0,.26-.28,.31-.52,.31h-.17v.24c.46,0,.91-.02,1.37-.02,.36,0,.72,.02,1.08,.02v-.24c-.3,0-.58-.07-.72-.25-.15-.21-.4-1.01-.54-1.37l-1.8-4.96h-.16c-.13,.22-.35,.32-.54,.41,.02,.08,.02,.15,.02,.25,0,.28-.12,.63-.2,.85l-1.2,3.36c-.12,.35-.24,.71-.39,1.05-.24,.53-.34,.6-.91,.67v.24c.38,0,.76-.02,1.14-.02s.74,.02,1.11,.02Zm.65-5.62h.02l1.01,2.77h-1.94l.91-2.77Z"/><path class="cls-2" d="M89.33,27.3h1.23v5.26c0,.66-.36,.67-.86,.68v.24c.47,0,.91-.02,1.36-.02,.41,0,.82,.02,1.27,.02v-.24c-.5,0-.86-.02-.86-.68v-5.26h1.43c.75,0,.72,.34,.75,.85h.25l.08-1.5h-.2c-.04,.18-.27,.26-.61,.26h-4.27c-.24,0-.49,0-.59-.26h-.19l-.1,1.5h.24c.16-.61,.2-.85,1.04-.85Z"/><path class="cls-2" d="M101.24,33.48c.09-.49,.24-.97,.39-1.44l-.23-.04c-.37,1.01-.78,1.13-1.7,1.18h-.58c-.93,0-.97-.26-.97-1.31v-1.6h1.01c.72,0,1.03,0,1.03,.9h.19c0-.3-.04-.74-.04-1.04,0-.34,.02-.85,.04-1.05h-.19c-.03,.22-.03,.81-.79,.81h-1.24v-2.67h1.1c.94,0,1.36,.26,1.5,1.15l.19-.05v-1.4c-.91,.02-1.81,.02-2.71,.02-.63,0-1.27,0-1.9-.02v.24c.74,.03,.89,.07,.89,.84v4.18c0,.91-.08,1.06-.89,1.06v.24c.7-.02,1.39-.02,2.09-.02,.94,0,1.88,.02,2.82,.02Z"/></g><g><path class="cls-1" d="M104.98,12.9h1.26v-3.57h-14.51v3.57h1.26c2.45,0,2.74,.37,2.74,3.6v6.17h-15.68v-6.17c0-3.23,.28-3.6,2.74-3.6h1.26v-3.57h-14.63v3.57h1.26c2.36,0,2.74,.24,2.74,3.6v6.17h-18.27c-4.77-3.42-9.44-7.22-9.44-11.4,0-5.52,5.26-6.99,8.37-6.99,9.16,0,10.34,10.51,10.34,10.51h3.05s0-14.23,0-14.23h-2.89s-.22,1.57-.91,1.57c-2.15,0-4.56-2.12-10.97-2.12-6.81,0-13.85,5.21-13.85,13.94,0,3.45,1.28,6.3,3.13,8.72h-12.51l2.07-5.81c1.3-3.69,2.56-3.96,4.47-3.96h1.26v-3.57h-12.85v3.57h1.26c2.28,0,1.97,1.3,1.39,2.94l-2.4,6.83H14.7l-2.42-6.84c-.49-1.4-1-2.93,1.39-2.93h1.26v-3.57H0v3.57H1.26c1.91,0,3.17,.27,4.47,3.95l2.07,5.81H0v14.46H12.95l1.45,4.07c.34,.97,.54,2.07-1.03,2.07h-1.26v3.5h13.03v-3.5h-1.26c-1.56,0-1.37-1.1-1.02-2.08l1.45-4.06H59.26c2.1,2.15,3.64,4.51,3.64,6.97,0,4.9-3.44,7.82-9.2,7.82-10.57,0-12.3-12.54-12.3-12.54h-3.12s0,16.17,0,16.17h3.03s.26-1.66,1.51-1.66c1.79,0,4.78,2.21,12.08,2.21,7.72,0,15.51-4.51,15.51-14.59,0-1.59-.25-3.05-.69-4.39h3.98c1.19,6.27,5.94,10.69,11.97,10.69,4.97,0,8.08-2.12,10.05-4.21v3.16h10.51v-3.56h-1.26c-2.36,0-2.74-.24-2.74-3.6v-2.48h4v-14.46h-4v-6.17c0-3.35,.38-3.6,2.74-3.6Zm-34.3-.34h-.92v-2.89h13.95v2.89h-.92c-2.64,0-3.07,.55-3.07,3.93v6.17h-5.96v-6.17c0-3.42-.4-3.93-3.07-3.93Zm-31.5,1.38C39.18,5.43,46.05,.34,52.69,.34c6.28,0,8.77,2.12,10.97,2.12,.98,0,1.16-1.57,1.16-1.57h2.3V14.45h-2.43s-1.27-10.51-10.62-10.51c-4.2,0-8.71,2.29-8.71,7.33,0,4.22,4.5,8,9.2,11.4h-12.16c-1.9-2.41-3.22-5.27-3.22-8.72Zm-11.8,2c.72-2.04,.84-3.39-1.71-3.39h-.92v-2.89h12.17v2.89h-.92c-2,0-3.41,.29-4.79,4.18,0,0-.9,2.51-2.11,5.92h-4.08l2.36-6.72Zm-21.33,.79c-1.37-3.89-2.79-4.18-4.79-4.18H.34v-2.89H14.6v2.89h-.92c-2.66,0-2.36,1.54-1.71,3.38l2.38,6.72h-6.18c-1.21-3.41-2.11-5.93-2.11-5.93Zm16.49,24.34c-.53,1.45-.31,2.53,1.34,2.53h.92v2.83H12.45v-2.83h.92c1.7,0,1.84-1.13,1.35-2.52,0,0-.57-1.59-1.41-3.96h6.15l.25,.69,.24-.69h4c-.84,2.37-1.41,3.95-1.41,3.95Zm47.53,.43c0,9.84-7.62,14.25-15.17,14.25s-10.25-2.21-12.08-2.21c-1.46,0-1.73,1.66-1.73,1.66h-2.47v-15.5h2.5s1.93,12.54,12.58,12.54c5.97,0,9.54-3.05,9.54-8.16,0-2.48-1.47-4.83-3.51-6.97h9.65c.44,1.33,.69,2.78,.69,4.39Zm34.91,2.03h.92v2.89h-9.83v-3.72c-1.87,2.23-5.03,4.76-10.39,4.76-5.84,0-10.45-4.28-11.63-10.35h6.07c.94,3.77,3.46,5.99,7.04,5.99s6.46-1.97,8.69-5.99h6.06v2.48c0,3.42,.4,3.93,3.08,3.93Zm-24.51-6.42h14.98c-2.17,3.84-4.82,5.65-8.3,5.65s-5.76-2.09-6.68-5.65Zm25.45-14.15v13.83H.32v-13.83H105.93Zm-4.02-6.49v6.17h-5.84v-6.17c0-3.38-.43-3.94-3.07-3.94h-.92v-2.89h13.83v2.89h-.92c-2.67,0-3.08,.51-3.08,3.94Z"/><polygon class="cls-1" points="82.99 27.87 82.08 30.63 84.01 30.63 83.01 27.87 82.99 27.87"/><path class="cls-1" d="M105,23.9H1.24v11.99H105v-11.99ZM12.64,26.23c-.38,0-.6,.17-.76,.44-.07,.12-.84,2.08-.86,2.13l-2.07,5.18h-.42l-1.87-4.67c-.28-.72-.61-1.46-.87-2.19-.26-.68-.44-.89-1.18-.89v-.29c.53,.01,1.06,.02,1.59,.02,.47,0,.96-.02,1.43-.02v.29c-.17,.01-.33,.01-.49,.03-.16,.01-.29,.1-.29,.27,0,.37,.6,1.74,.72,2.07l1.5,3.86,.86-2.23c.27-.73,.59-1.46,.82-2.19,.11-.36,.35-.91,.35-1.29,0-.53-.45-.5-.86-.52v-.29c.44,.01,.89,.02,1.33,.02,.35,0,.7-.01,1.05-.02v.29Zm4.15,.93c-.5,0-.86,.02-.86,.68v4.72c0,.66,.36,.67,.86,.68v.24c-.45,0-.86-.02-1.27-.02-.45,0-.89,0-1.36,.02v-.24c.5,0,.86-.02,.86-.68v-4.72c0-.66-.36-.67-.86-.68v-.24c.44,0,.88,.02,1.3,.02s.87,0,1.34-.02v.24Zm8.76,6.32c-.23,0-.47-.02-.7-.02-.26,0-.54,0-.8,.02-.86-.94-1.49-2.04-2.16-3.1h-.86v2.18c0,.66,.36,.67,.86,.68v.24c-.45,0-.86-.02-1.27-.02-.45,0-.89,0-1.36,.02v-.24c.47,.03,.86-.1,.86-.63v-4.77c0-.66-.36-.67-.86-.68v-.24c.52,0,.97,.02,1.43,.02,.33,0,.66-.02,1.26-.02,1.78,0,2.17,1,2.17,1.67,0,.8-.6,1.39-1.34,1.61,.86,1.25,1.31,2,1.71,2.46,.3,.34,.58,.59,1.06,.59v.24Zm8.22-2.61c-.31,0-.67,0-.67,.69v1.23l.14,.14v.16c-.76,.27-1.63,.54-2.45,.54-2.64,0-3.61-2.07-3.61-3.41,0-1.98,1.53-3.43,3.5-3.43,.84,0,1.64,.22,2.42,.51l.16,1.32h-.21c-.24-1.09-1.16-1.52-2.21-1.52-1.66,0-2.62,1.46-2.62,2.99,0,1.63,1,3.25,2.69,3.25,.74,0,1.13-.26,1.27-.37v-1.4c0-.69-.36-.69-.86-.69v-.24c.44,0,.87,.02,1.3,.02s.87,0,1.15-.02v.24Zm4.95-3.71c-.5,0-.86,.02-.86,.68v4.72c0,.66,.36,.67,.86,.68v.24c-.45,0-.86-.02-1.27-.02-.45,0-.89,0-1.36,.02v-.24c.5,0,.86-.02,.86-.68v-4.72c0-.66-.36-.67-.86-.68v-.24c.44,0,.87,.02,1.3,.02s.86,0,1.34-.02v.24Zm9.82,0c-.57,0-.88,.05-.88,.97v5.44h-.22l-4.92-5.4v3.51c0,1.3,.1,1.56,1.12,1.56v.24c-.41,0-.84-.02-1.25-.02s-.84,0-1.25,.02v-.24c.57,0,1.01,0,1.01-1.19v-3.78c0-.81-.35-1.1-1.16-1.1v-.24c.29,0,.57,.02,.87,.02,.25,0,.52-.02,.77-.02,.39,.57,1.26,1.43,2.33,2.62,.8,.88,1.68,1.82,2.32,2.51v-3.74c0-.87-.2-1.13-1.14-1.14v-.24c.43,0,.88,.02,1.31,.02,.37,0,.72-.02,1.09-.02v.24Zm4.9,0c-.5,0-.86,.02-.86,.68v4.72c0,.66,.36,.67,.86,.68v.24c-.45,0-.86-.02-1.27-.02-.45,0-.89,0-1.36,.02v-.24c.5,0,.86-.02,.86-.68v-4.72c0-.66-.36-.67-.86-.68v-.24c.44,0,.88,.02,1.3,.02s.87,0,1.34-.02v.24Zm8.74,6.32c-.36,0-.72-.02-1.08-.02-.46,0-.91,0-1.37,.02v-.24h.17c.24,0,.52-.05,.52-.31,0-.1-.08-.37-.14-.54l-.47-1.36h-2.21l-.21,.66c-.12,.4-.25,.83-.25,1.12,0,.44,.31,.42,.64,.44h.22v.24c-.37,0-.74-.02-1.11-.02s-.76,0-1.14,.02v-.24c.57-.07,.68-.14,.91-.67,.15-.34,.26-.7,.39-1.05l1.2-3.36c.07-.22,.2-.57,.2-.85,0-.09,0-.17-.02-.25,.2-.09,.41-.2,.55-.41h.16l1.8,4.96c.13,.37,.39,1.17,.54,1.37,.14,.19,.42,.25,.72,.25v.24Zm5.72,.52c-.59,0-1.2-.14-1.73-.38l-.23-1.65h.26c.19,.85,.82,1.67,1.76,1.67,.87,0,1.55-.61,1.55-1.5,0-2.1-3.34-1.48-3.34-4.14,0-1.46,1.04-2.21,2.42-2.21,.46,0,.93,.1,1.38,.17l.18,1.45h-.26c-.12-.79-.64-1.25-1.46-1.25-.86,0-1.35,.62-1.35,1.44,0,2.1,3.48,1.52,3.48,4.12,0,1.47-1.32,2.29-2.65,2.29Zm10.61-5.85h-.25c-.03-.51,0-.85-.75-.85h-1.43v5.26c0,.66,.36,.67,.86,.68v.24c-.45,0-.86-.02-1.27-.02-.45,0-.89,0-1.36,.02v-.24c.5,0,.86-.02,.86-.68v-5.26h-1.23c-.85,0-.88,.24-1.04,.85h-.24l.1-1.5h.19c.1,.25,.36,.26,.59,.26h4.27c.34,0,.57-.08,.61-.26h.2l-.08,1.5Zm8.03,5.33c-.36,0-.72-.02-1.08-.02-.46,0-.91,0-1.37,.02v-.24h.17c.23,0,.52-.05,.52-.31,0-.1-.08-.37-.14-.54l-.47-1.36h-2.21l-.21,.66c-.12,.4-.25,.83-.25,1.12,0,.44,.31,.42,.64,.44h.22v.24c-.37,0-.74-.02-1.11-.02s-.76,0-1.14,.02v-.24c.57-.07,.68-.14,.91-.67,.15-.34,.26-.7,.39-1.05l1.2-3.36c.08-.22,.2-.57,.2-.85,0-.09,0-.17-.02-.25,.2-.09,.41-.2,.54-.41h.16l1.8,4.96c.13,.37,.39,1.17,.54,1.37,.14,.19,.42,.25,.72,.25v.24Zm7.38-5.33h-.25c-.03-.51,0-.85-.75-.85h-1.43v5.26c0,.66,.36,.67,.86,.68v.24c-.45,0-.86-.02-1.27-.02-.45,0-.89,0-1.36,.02v-.24c.5,0,.86-.02,.86-.68v-5.26h-1.23c-.85,0-.88,.24-1.04,.85h-.24l.1-1.5h.19c.1,.25,.36,.26,.59,.26h4.27c.34,0,.57-.08,.61-.26h.2l-.08,1.5Zm7.32,5.33c-.94,0-1.88-.02-2.82-.02-.7,0-1.39,0-2.09,.02v-.24c.82,0,.89-.15,.89-1.06v-4.18c0-.77-.15-.81-.89-.84v-.24c.63,.02,1.27,.02,1.9,.02,.9,0,1.8,0,2.71-.02v1.4l-.19,.05c-.14-.88-.56-1.15-1.5-1.15h-1.1v2.67h1.24c.76,0,.76-.59,.79-.81h.19c-.02,.21-.04,.71-.04,1.05,0,.3,.05,.74,.04,1.04h-.19c0-.9-.3-.9-1.03-.9h-1.01v1.6c0,1.04,.04,1.31,.97,1.31h.58c.92-.05,1.34-.17,1.7-1.18l.23,.04c-.15,.47-.29,.95-.39,1.44Z"/><path class="cls-1" d="M21.59,27.22c-.24,0-.39,.03-.56,.06v2.76c.14,.03,.34,.05,.5,.05,1.16,0,1.61-.76,1.61-1.44,0-.82-.43-1.42-1.54-1.42Z"/><polygon class="cls-1" points="58.62 27.87 57.71 30.63 59.65 30.63 58.64 27.87 58.62 27.87"/></g><g><path class="cls-3" d="M92.99,11.64c3.5,0,4,1.35,4,4.86v6.17h4v-6.17c0-3.69,.61-4.86,4-4.86v-1.04h-11.99v1.04Z"/><path class="cls-3" d="M100.98,39.61v-2.48h-4.08c-2.09,3.98-5.08,6.91-9.75,6.91-3.8,0-6.94-2.31-7.99-6.91h-4.17c1.1,5.27,5,9.43,10.68,9.43,6.82,0,9.78-4.3,11.31-6.7v5.65h7.99v-1.04c-3.38,0-4-1.17-4-4.86Z"/><path class="cls-3" d="M78.79,22.66v-6.17c0-3.5,.49-4.86,4-4.86v-1.05h-12.11v1.05c3.38,0,4,1.17,4,4.86v6.17s4.12,0,4.12,0Z"/><path class="cls-3" d="M60.98,37.12c1.87,2.12,3.19,4.46,3.19,6.97,0,5.6-4.01,9.08-10.46,9.08-11.01,0-13.34-12.54-13.34-12.54h-.82v13.65h.9s.55-1.66,2.38-1.66c2.24,0,4.81,2.21,12.08,2.21s14.25-4.12,14.25-13.33c0-1.61-.27-3.06-.75-4.39h-7.42Z"/><path class="cls-3" d="M53,22.66c-4.5-3.34-8.56-7.07-8.56-11.4,0-5.67,4.99-8.25,9.63-8.25,9.64,0,11.4,10.51,11.4,10.51h.73V1.81h-.69s-.41,1.57-1.85,1.57c-2.49,0-4.79-2.12-10.97-2.12s-12.59,4.74-12.59,12.68c0,3.46,1.46,6.32,3.5,8.72h9.4Z"/><path class="cls-3" d="M21.67,40.77l1.3-3.65h-2.05l-1.22,3.47-1.23-3.47h-4.19l1.3,3.65c.98,2.83-.68,3.75-2.21,3.75v.98h10.51v-.98c-1.54,0-3.2-.92-2.21-3.75Z"/><path class="cls-3" d="M25.67,11.64c1.78,0,4,.55,2.58,4.61l-2.25,6.42h2.12l2.22-6.23c1.48-4.18,3.2-4.79,5.66-4.79v-1.04h-10.33v1.04Z"/><path class="cls-3" d="M13.68,11.64v-1.04H1.26v1.04c2.46,0,4.18,.61,5.66,4.79l2.22,6.23h4.23l-2.27-6.42c-1.41-4.06,.8-4.61,2.58-4.61Z"/><polygon class="cls-3" points="104 47.68 104.38 47.68 104.38 48.85 104.52 48.85 104.52 47.68 104.93 47.68 104.93 47.54 104 47.54 104 47.68"/><polygon class="cls-3" points="106.01 47.54 105.68 48.61 105.34 47.54 105.12 47.54 105.12 48.85 105.26 48.85 105.26 47.74 105.61 48.85 105.75 48.85 106.1 47.74 106.1 48.85 106.24 48.85 106.24 47.54 106.01 47.54"/></g></g></g></g></svg>